<svg width="48" height="49" viewBox="0 0 48 49" fill="none" xmlns="http://www.w3.org/2000/svg">
<mask id="mask0_4079_7722" style="mask-type:alpha" maskUnits="userSpaceOnUse" x="0" y="0" width="48" height="49">
<rect y="0.5" width="48" height="48" fill="#D9D9D9"/>
</mask>
<g mask="url(#mask0_4079_7722)">
<path d="M12.6345 39.5C9.98583 39.5 7.718 38.5547 5.831 36.664C3.94367 34.7733 3 32.5007 3 29.846C3 27.3743 3.82817 25.211 5.4845 23.356C7.14117 21.5007 9.17967 20.4563 11.6 20.223C12.113 17.118 13.5418 14.5597 15.8865 12.548C18.2315 10.5367 20.963 9.53101 24.081 9.53101C27.6073 9.53101 30.5677 10.7922 32.962 13.3145C35.3567 15.8372 36.554 18.872 36.554 22.419V24.3115H37.169C39.3513 24.2322 41.202 24.9207 42.721 26.377C44.2403 27.8333 45 29.673 45 31.896C45 33.978 44.2597 35.7658 42.779 37.2595C41.298 38.7532 39.5165 39.5 37.4345 39.5H25.75C24.9657 39.5 24.2888 39.2153 23.7195 38.646C23.1502 38.0767 22.8655 37.3998 22.8655 36.6155V23.754L18.4655 28.173L16.8345 26.5615L24 19.396L31.1655 26.5615L29.5345 28.173L25.1345 23.754V36.6155C25.1345 36.7692 25.1987 36.9102 25.327 37.0385C25.455 37.1665 25.596 37.2305 25.75 37.2305H37.396C38.8703 37.2305 40.128 36.709 41.169 35.666C42.21 34.623 42.7305 33.3685 42.7305 31.9025C42.7305 30.4368 42.21 29.1835 41.169 28.1425C40.128 27.1015 38.8682 26.581 37.3895 26.581H34.2845V22.419C34.2845 19.5163 33.2858 17.0208 31.2885 14.9325C29.2912 12.8442 26.838 11.8 23.929 11.8C21.02 11.8 18.5583 12.8442 16.544 14.9325C14.53 17.0208 13.523 19.5163 13.523 22.419H12.5155C10.5258 22.419 8.82067 23.1345 7.4 24.5655C5.97967 25.9962 5.2695 27.7557 5.2695 29.844C5.2695 31.8657 5.9885 33.6022 7.4265 35.0535C8.8645 36.5048 10.6005 37.2305 12.6345 37.2305H19.096V39.5H12.6345Z" fill="white"/>
</g>
</svg>
