<svg width="24" height="24" viewBox="0 0 24 24" fill="none" xmlns="http://www.w3.org/2000/svg">
<mask id="mask0_4079_7669" style="mask-type:alpha" maskUnits="userSpaceOnUse" x="0" y="0" width="24" height="24">
<rect width="24" height="24" fill="#D9D9D9"/>
</mask>
<g mask="url(#mask0_4079_7669)">
<path d="M12.0004 20.975C11.7657 20.975 11.5597 20.9375 11.3824 20.8625C11.2051 20.7875 11.0341 20.666 10.8696 20.498L3.50239 13.1308C3.33439 12.9663 3.21289 12.7954 3.13789 12.618C3.06289 12.4407 3.02539 12.2347 3.02539 12C3.02539 11.7654 3.06222 11.5609 3.13589 11.3865C3.20972 11.2122 3.32939 11.0423 3.49489 10.8768L10.8696 3.50202C11.0341 3.33536 11.2051 3.21419 11.3824 3.13852C11.5597 3.06286 11.7657 3.02502 12.0004 3.02502C12.2351 3.02502 12.4396 3.06352 12.6139 3.14052C12.7882 3.21736 12.9606 3.33786 13.1311 3.50202L20.4984 10.8693C20.6626 11.0398 20.7831 11.2114 20.8599 11.3843C20.9369 11.5571 20.9754 11.7624 20.9754 12C20.9754 12.2347 20.9376 12.4407 20.8619 12.618C20.7862 12.7954 20.6651 12.9663 20.4984 13.1308L13.1236 20.5055C12.9581 20.671 12.789 20.7907 12.6161 20.8645C12.4433 20.9382 12.2381 20.975 12.0004 20.975ZM11.3504 12.6865H12.6504V7.67127H11.3504V12.6865ZM11.9951 15.302C12.1941 15.302 12.3627 15.2347 12.5009 15.1C12.6391 14.9654 12.7081 14.7985 12.7081 14.5995C12.7081 14.4005 12.6408 14.2319 12.5061 14.0938C12.3715 13.9556 12.2046 13.8865 12.0056 13.8865C11.8066 13.8865 11.6381 13.9539 11.4999 14.0885C11.3617 14.2232 11.2926 14.39 11.2926 14.589C11.2926 14.788 11.36 14.9566 11.4946 15.0948C11.6293 15.2329 11.7961 15.302 11.9951 15.302Z" fill="#FFCC14"/>
</g>
</svg>
